<svg xmlns="http://www.w3.org/2000/svg" xmlns:xlink="http://www.w3.org/1999/xlink" width="500" zoomAndPan="magnify" viewBox="0 0 375 374.999991" height="500" preserveAspectRatio="xMidYMid meet" version="1.0"><defs><clipPath id="fc9b713d80"><path d="M 130 167 L 354 167 L 354 360 L 130 360 Z M 130 167 " clip-rule="nonzero"/></clipPath><clipPath id="d0285dbb01"><path d="M 374.996094 210.882812 L 165.160156 374.769531 L 124.535156 322.753906 L 334.371094 158.867188 Z M 374.996094 210.882812 " clip-rule="nonzero"/></clipPath><clipPath id="8f181b4f51"><path d="M 374.996094 210.882812 L 165.160156 374.769531 L 124.535156 322.753906 L 334.371094 158.867188 Z M 374.996094 210.882812 " clip-rule="nonzero"/></clipPath></defs><g clip-path="url(#fc9b713d80)"><g clip-path="url(#d0285dbb01)"><g clip-path="url(#8f181b4f51)"><path fill="#c7ebf8" d="M 136.90625 332.25 C 145.617188 325.097656 154.386719 318.109375 163.234375 311.128906 C 171.488281 305.167969 179.675781 299.121094 187.90625 293.039062 C 190.5625 291.105469 193.136719 289.164062 195.792969 287.230469 C 189.484375 291.949219 183.207031 296.710938 176.933594 301.472656 C 166.699219 309.257812 156.578125 317.09375 146.515625 325.089844 C 145.523438 325.867188 144.609375 326.648438 143.617188 327.421875 C 141.96875 328.78125 141.441406 331.480469 142.910156 333.183594 C 144.375 334.882812 146.824219 335.261719 148.667969 333.890625 C 155.277344 328.933594 161.855469 323.9375 168.398438 318.894531 C 168.464844 318.984375 168.566406 319.113281 168.636719 319.199219 C 169.417969 320.113281 170.371094 320.621094 171.410156 320.707031 C 169.484375 322.421875 167.605469 324.097656 165.679688 325.808594 C 165.023438 326.390625 164.367188 326.972656 163.753906 327.523438 C 161.726562 329.105469 159.667969 330.644531 157.640625 332.226562 C 156.605469 333.035156 155.570312 333.84375 154.535156 334.652344 C 152.855469 335.964844 152.394531 338.753906 153.828125 340.410156 C 155.328125 342.152344 157.710938 342.445312 159.585938 341.117188 C 159.71875 341.015625 159.847656 340.914062 159.976562 340.816406 C 158.832031 342.195312 158.769531 344.601562 159.96875 345.957031 C 161.535156 347.785156 163.78125 347.90625 165.726562 346.664062 C 167.042969 345.773438 168.394531 344.929688 169.710938 344.039062 C 169.808594 344.515625 170.027344 344.972656 170.363281 345.402344 C 168.484375 346.730469 166.640625 348.101562 164.761719 349.429688 C 163.652344 350.230469 162.539062 351.027344 161.394531 351.785156 C 159.730469 352.941406 159.429688 355.398438 160.390625 357.078125 C 161.421875 358.839844 163.59375 359.574219 165.480469 358.792969 C 167.121094 358.136719 168.683594 357.472656 170.253906 356.730469 C 171.289062 358.144531 173.476562 359.074219 175.109375 358.144531 C 185.585938 352.1875 195.75 345.5625 205.742188 338.804688 C 218.320312 330.296875 230.667969 321.484375 242.914062 312.546875 C 256.0625 302.902344 269.121094 293.050781 282.035156 283.101562 C 294.226562 273.648438 306.359375 264.035156 318.28125 254.238281 C 327.820312 246.371094 337.292969 238.414062 346.386719 230.0625 C 347.269531 229.238281 348.152344 228.410156 349.03125 227.582031 C 350.398438 226.308594 351.121094 224.214844 350.203125 222.503906 C 350.289062 222.4375 350.417969 222.335938 350.46875 222.226562 C 352.050781 220.78125 352.710938 218.253906 351.179688 216.46875 C 350.496094 215.679688 349.621094 215.183594 348.707031 214.996094 C 349.625 214.210938 350.546875 213.351562 351.460938 212.566406 C 353.042969 211.125 353.671875 208.550781 352.171875 206.808594 C 350.703125 205.105469 348.257812 204.726562 346.410156 206.097656 C 342.207031 209.246094 337.964844 212.347656 333.761719 215.496094 C 336.429688 213.132812 339.0625 210.730469 341.695312 208.324219 C 342.664062 207.429688 343.585938 206.570312 344.554688 205.675781 C 346.101562 204.191406 346.796875 201.703125 345.261719 199.917969 C 344.511719 199.046875 343.59375 198.582031 342.640625 198.425781 C 342.816406 197.316406 342.5625 196.195312 341.8125 195.324219 C 340.277344 193.539062 337.964844 193.332031 336.054688 194.617188 C 334.652344 195.574219 333.246094 196.53125 331.800781 197.523438 C 331.699219 197.394531 331.632812 197.304688 331.53125 197.175781 C 330.746094 196.261719 329.828125 195.800781 328.910156 195.6875 C 330.617188 194.140625 332.40625 192.609375 334.113281 191.066406 C 335.039062 190.203125 335.953125 189.421875 336.878906 188.558594 C 338.414062 187.152344 338.933594 185.148438 337.878906 183.265625 C 337.140625 181.96875 335.683594 181.164062 334.195312 181.214844 C 333.855469 181.132812 333.46875 181.085938 333.078125 181.117188 C 334.792969 179.847656 336.429688 178.566406 338.144531 177.296875 C 339.222656 176.457031 340.335938 175.65625 341.457031 174.78125 C 343.171875 173.511719 343.597656 170.679688 342.164062 169.023438 C 340.664062 167.277344 338.25 166.945312 336.40625 168.316406 C 326.167969 175.824219 315.964844 183.378906 305.761719 190.929688 C 292.902344 200.417969 280.042969 209.902344 267.144531 219.425781 C 253.304688 229.609375 239.429688 239.75 225.558594 249.890625 C 212.375 259.496094 199.15625 269.054688 185.871094 278.527344 C 175.15625 286.132812 164.363281 293.730469 153.476562 301.121094 C 152.375 301.84375 151.304688 302.609375 150.203125 303.332031 C 148.421875 304.515625 148.128906 307.519531 149.496094 309.089844 C 149.832031 309.519531 150.222656 309.839844 150.664062 310.050781 C 149.800781 310.726562 148.863281 311.390625 148 312.0625 C 147.398438 312.535156 146.972656 313.144531 146.6875 313.851562 C 142.757812 316.992188 138.824219 320.132812 134.882812 323.347656 C 133.882812 324.199219 132.847656 325.007812 131.847656 325.859375 C 130.199219 327.214844 129.671875 329.917969 131.136719 331.617188 C 132.582031 333.199219 135.164062 333.75 136.90625 332.25 Z M 190.160156 318.765625 C 202.90625 309.226562 215.585938 299.601562 228.234375 289.933594 C 236.320312 283.753906 244.414062 277.503906 252.46875 271.28125 C 252.984375 270.878906 253.578125 270.484375 254.097656 270.078125 C 249.015625 274.328125 243.976562 278.539062 238.859375 282.742188 C 237.351562 283.921875 235.800781 285.132812 234.289062 286.3125 C 221.539062 296.203125 208.6875 305.960938 195.742188 315.515625 C 185.246094 323.226562 174.675781 330.929688 163.84375 338.210938 C 163.625 338.378906 163.378906 338.503906 163.160156 338.671875 C 172.234375 332.074219 181.199219 325.417969 190.160156 318.765625 Z M 190.160156 318.765625 " fill-opacity="1" fill-rule="nonzero"/></g></g></g><path fill="#86b9b0" d="M 103.585938 101.238281 C 101.652344 102.890625 99.789062 104.597656 98.015625 106.351562 C 78.21875 125.871094 68.207031 151.371094 67.996094 177.675781 C 67.792969 203.949219 77.359375 231 96.710938 253.679688 C 98.730469 256.046875 100.863281 258.378906 103.09375 260.644531 C 126.554688 284.425781 157.332031 297.816406 188.136719 300.230469 C 218.984375 302.652344 249.875 294.066406 273.488281 273.914062 C 275.433594 272.261719 277.285156 270.554688 279.070312 268.800781 C 298.855469 249.28125 308.878906 223.78125 309.082031 197.464844 C 309.292969 171.203125 299.714844 144.140625 280.363281 121.472656 C 278.34375 119.097656 276.214844 116.773438 273.980469 114.507812 C 250.523438 90.714844 219.742188 77.324219 188.9375 74.914062 C 158.09375 72.503906 127.210938 81.085938 103.585938 101.238281 Z M 100.402344 108.785156 C 102.132812 107.085938 103.929688 105.4375 105.804688 103.839844 C 128.707031 84.296875 158.695312 75.984375 188.671875 78.328125 C 218.691406 80.683594 248.691406 93.730469 271.546875 116.898438 C 273.722656 119.117188 275.800781 121.382812 277.773438 123.695312 C 296.570312 145.726562 305.867188 171.984375 305.664062 197.441406 C 305.464844 222.863281 295.800781 247.507812 276.671875 266.355469 C 274.953125 268.054688 273.144531 269.714844 271.269531 271.3125 C 248.378906 290.855469 218.378906 299.167969 188.402344 296.8125 C 158.382812 294.46875 128.382812 281.421875 105.539062 258.242188 C 103.363281 256.035156 101.273438 253.769531 99.308594 251.457031 C 80.503906 229.425781 71.207031 203.167969 71.410156 177.710938 C 71.609375 152.289062 81.285156 127.644531 100.402344 108.785156 " fill-opacity="1" fill-rule="nonzero"/><path fill="#4c7273" d="M 151.742188 82.804688 C 93.875 103.125 63.441406 166.503906 83.765625 224.371094 C 104.085938 282.238281 167.464844 312.671875 225.332031 292.347656 C 283.199219 272.027344 313.644531 208.648438 293.320312 150.78125 C 273 92.914062 209.609375 62.46875 151.742188 82.804688 " fill-opacity="1" fill-rule="evenodd"/><path fill="#4c7273" d="M 145.679688 299.347656 C 122.023438 293.855469 110.371094 284.9375 92.546875 261.625 C 74.714844 238.3125 71.296875 272.929688 100.101562 288.019531 C 128.894531 303.109375 169.339844 304.828125 145.679688 299.347656 " fill-opacity="1" fill-rule="evenodd"/><path fill="#4c7273" d="M 225.710938 73.214844 C 249.371094 78.707031 261.023438 87.613281 278.847656 110.925781 C 296.679688 134.242188 300.097656 99.632812 271.300781 84.542969 C 242.496094 69.457031 202.050781 67.738281 225.710938 73.214844 " fill-opacity="1" fill-rule="evenodd"/></svg>